<svg width="24" height="25" viewBox="0 0 24 25" fill="none" xmlns="http://www.w3.org/2000/svg">
<path d="M16 21.7542V19.7542C16 18.6933 15.5786 17.6759 14.8284 16.9257C14.0783 16.1756 13.0609 15.7542 12 15.7542H5C3.93913 15.7542 2.92172 16.1756 2.17157 16.9257C1.42143 17.6759 1 18.6933 1 19.7542V21.7542" stroke="#363636" stroke-width="2" stroke-linecap="round" stroke-linejoin="round"/>
<path d="M8.5 11.7542C10.7091 11.7542 12.5 9.96329 12.5 7.75415C12.5 5.54501 10.7091 3.75415 8.5 3.75415C6.29086 3.75415 4.5 5.54501 4.5 7.75415C4.5 9.96329 6.29086 11.7542 8.5 11.7542Z" stroke="#363636" stroke-width="2" stroke-linecap="round" stroke-linejoin="round"/>
<path d="M20 8.75415V14.7542" stroke="#363636" stroke-width="2" stroke-linecap="round" stroke-linejoin="round"/>
<path d="M23 11.7542H17" stroke="#363636" stroke-width="2" stroke-linecap="round" stroke-linejoin="round"/>
</svg>
