<svg width="24" height="25" viewBox="0 0 24 25" fill="none" xmlns="http://www.w3.org/2000/svg">
<g clip-path="url(#clip0_743_5618)">
<path fill-rule="evenodd" clip-rule="evenodd" d="M3 5.25415C3 4.42572 3.67157 3.75415 4.5 3.75415H19.5C20.3284 3.75415 21 4.42572 21 5.25415V20.2542C21 21.0826 20.3284 21.7542 19.5 21.7542H4.5C3.67157 21.7542 3 21.0826 3 20.2542V5.25415ZM19.5 5.25415H4.5V20.2542H19.5V5.25415Z" fill="#363636"/>
<path fill-rule="evenodd" clip-rule="evenodd" d="M16.5 2.25415C16.9142 2.25415 17.25 2.58994 17.25 3.00415V6.00415C17.25 6.41836 16.9142 6.75415 16.5 6.75415C16.0858 6.75415 15.75 6.41836 15.75 6.00415V3.00415C15.75 2.58994 16.0858 2.25415 16.5 2.25415Z" fill="#363636"/>
<path fill-rule="evenodd" clip-rule="evenodd" d="M7.5 2.25415C7.91421 2.25415 8.25 2.58994 8.25 3.00415V6.00415C8.25 6.41836 7.91421 6.75415 7.5 6.75415C7.08579 6.75415 6.75 6.41836 6.75 6.00415V3.00415C6.75 2.58994 7.08579 2.25415 7.5 2.25415Z" fill="#363636"/>
<path fill-rule="evenodd" clip-rule="evenodd" d="M3 9.00415C3 8.58994 3.33579 8.25415 3.75 8.25415H20.25C20.6642 8.25415 21 8.58994 21 9.00415C21 9.41836 20.6642 9.75415 20.25 9.75415H3.75C3.33579 9.75415 3 9.41836 3 9.00415Z" fill="#363636"/>
<path fill-rule="evenodd" clip-rule="evenodd" d="M7.875 12.7539C7.875 12.3397 8.21079 12.0039 8.625 12.0039H11.25C11.5383 12.0039 11.8011 12.1692 11.926 12.429C12.0509 12.6889 12.0158 12.9973 11.8357 13.2224L11.0046 14.2612C11.2477 14.4244 11.4571 14.634 11.6206 14.8786C11.8262 15.1862 11.9528 15.5397 11.9891 15.9079C12.0255 16.276 11.9705 16.6475 11.829 16.9893C11.6875 17.3312 11.4639 17.6328 11.178 17.8676C10.8922 18.1024 10.5528 18.2631 10.19 18.3355C9.82715 18.4078 9.45209 18.3896 9.09801 18.2824C8.74392 18.1752 8.42174 17.9823 8.15998 17.7209C7.86691 17.4282 7.86662 16.9533 8.15933 16.6602C8.45205 16.3671 8.92692 16.3668 9.21999 16.6596C9.30725 16.7467 9.41464 16.811 9.53267 16.8467C9.6507 16.8825 9.77571 16.8885 9.89665 16.8644C10.0176 16.8403 10.1307 16.7868 10.226 16.7085C10.3213 16.6302 10.3958 16.5297 10.443 16.4157C10.4902 16.3018 10.5085 16.1779 10.4964 16.0552C10.4843 15.9325 10.4421 15.8147 10.3735 15.7121C10.305 15.6096 10.2123 15.5256 10.1035 15.4674C9.99474 15.4093 9.87332 15.3789 9.75 15.3789C9.4617 15.3789 9.19891 15.2136 9.07402 14.9538C8.94913 14.6939 8.98425 14.3855 9.16435 14.1604L9.68953 13.5039H8.625C8.21079 13.5039 7.875 13.1681 7.875 12.7539Z" fill="#363636"/>
<path fill-rule="evenodd" clip-rule="evenodd" d="M15.3354 12.0828C15.5895 12.2099 15.75 12.4696 15.75 12.7537V17.6287C15.75 18.0429 15.4142 18.3787 15 18.3787C14.5858 18.3787 14.25 18.0429 14.25 17.6287V14.2537L13.95 14.4787C13.6186 14.7272 13.1485 14.66 12.9 14.3287C12.6515 13.9973 12.7186 13.5272 13.05 13.2787L14.55 12.1537C14.7772 11.9832 15.0813 11.9558 15.3354 12.0828Z" fill="#363636"/>
</g>
<defs>
<clipPath id="clip0_743_5618">
<rect width="24" height="24" fill="white" transform="translate(0 0.75415)"/>
</clipPath>
</defs>
</svg>
