<svg width="24" height="25" viewBox="0 0 24 25" fill="none" xmlns="http://www.w3.org/2000/svg">
<g clip-path="url(#clip0_4_3394)">
<path d="M9 22.7542C9.55228 22.7542 10 22.3064 10 21.7542C10 21.2019 9.55228 20.7542 9 20.7542C8.44772 20.7542 8 21.2019 8 21.7542C8 22.3064 8.44772 22.7542 9 22.7542Z" stroke="#363636" stroke-width="2" stroke-linecap="round" stroke-linejoin="round"/>
<path d="M20 22.7542C20.5523 22.7542 21 22.3064 21 21.7542C21 21.2019 20.5523 20.7542 20 20.7542C19.4477 20.7542 19 21.2019 19 21.7542C19 22.3064 19.4477 22.7542 20 22.7542Z" stroke="#363636" stroke-width="2" stroke-linecap="round" stroke-linejoin="round"/>
<path d="M1 1.75415H5L7.68 15.1442C7.77144 15.6045 8.02191 16.0181 8.38755 16.3124C8.75318 16.6068 9.2107 16.7631 9.68 16.7542H19.4C19.8693 16.7631 20.3268 16.6068 20.6925 16.3124C21.0581 16.0181 21.3086 15.6045 21.4 15.1442L23 6.75415H6" stroke="#363636" stroke-width="2" stroke-linecap="round" stroke-linejoin="round"/>
</g>
<defs>
<clipPath id="clip0_4_3394">
<rect width="24" height="24" fill="white" transform="translate(0 0.75415)"/>
</clipPath>
</defs>
</svg>
