<svg width="24" height="25" viewBox="0 0 24 25" fill="none" xmlns="http://www.w3.org/2000/svg">
<path d="M3 6.75415H5H21" stroke="#363636" stroke-width="2" stroke-linecap="round" stroke-linejoin="round"/>
<path d="M8 6.75415V4.75415C8 4.22372 8.21071 3.71501 8.58579 3.33994C8.96086 2.96486 9.46957 2.75415 10 2.75415H14C14.5304 2.75415 15.0391 2.96486 15.4142 3.33994C15.7893 3.71501 16 4.22372 16 4.75415V6.75415M19 6.75415V20.7542C19 21.2846 18.7893 21.7933 18.4142 22.1684C18.0391 22.5434 17.5304 22.7542 17 22.7542H7C6.46957 22.7542 5.96086 22.5434 5.58579 22.1684C5.21071 21.7933 5 21.2846 5 20.7542V6.75415H19Z" stroke="#363636" stroke-width="2" stroke-linecap="round" stroke-linejoin="round"/>
<path d="M10 11.7542V17.7542" stroke="#363636" stroke-width="2" stroke-linecap="round" stroke-linejoin="round"/>
<path d="M14 11.7542V17.7542" stroke="#363636" stroke-width="2" stroke-linecap="round" stroke-linejoin="round"/>
</svg>
