<svg width="24" height="25" viewBox="0 0 24 25" fill="none" xmlns="http://www.w3.org/2000/svg">
<path d="M12 13.7542C12.5523 13.7542 13 13.3064 13 12.7542C13 12.2019 12.5523 11.7542 12 11.7542C11.4477 11.7542 11 12.2019 11 12.7542C11 13.3064 11.4477 13.7542 12 13.7542Z" stroke="#363636" stroke-width="2" stroke-linecap="round" stroke-linejoin="round"/>
<path d="M12 6.75415C12.5523 6.75415 13 6.30644 13 5.75415C13 5.20187 12.5523 4.75415 12 4.75415C11.4477 4.75415 11 5.20187 11 5.75415C11 6.30644 11.4477 6.75415 12 6.75415Z" stroke="#363636" stroke-width="2" stroke-linecap="round" stroke-linejoin="round"/>
<path d="M12 20.7542C12.5523 20.7542 13 20.3064 13 19.7542C13 19.2019 12.5523 18.7542 12 18.7542C11.4477 18.7542 11 19.2019 11 19.7542C11 20.3064 11.4477 20.7542 12 20.7542Z" stroke="#363636" stroke-width="2" stroke-linecap="round" stroke-linejoin="round"/>
</svg>
