<svg width="24" height="25" viewBox="0 0 24 25" fill="none" xmlns="http://www.w3.org/2000/svg">
<path d="M8.68934 21.0043H4.5C4.30109 21.0043 4.11032 20.9253 3.96967 20.7846C3.82902 20.644 3.75 20.4532 3.75 20.2543V16.0649C3.75 15.9664 3.7694 15.8689 3.80709 15.7779C3.84478 15.6869 3.90003 15.6043 3.96967 15.5346L15.2197 4.28461C15.3603 4.14396 15.5511 4.06494 15.75 4.06494C15.9489 4.06494 16.1397 4.14396 16.2803 4.28461L20.4697 8.47395C20.6103 8.6146 20.6893 8.80537 20.6893 9.00428C20.6893 9.20319 20.6103 9.39396 20.4697 9.53461L9.21967 20.7846C9.15003 20.8543 9.06735 20.9095 8.97635 20.9472C8.88536 20.9849 8.78783 21.0043 8.68934 21.0043Z" stroke="#363636" stroke-width="2" stroke-linecap="round" stroke-linejoin="round"/>
<path d="M12.75 6.75415L18 12.0042" stroke="#363636" stroke-width="2" stroke-linecap="round" stroke-linejoin="round"/>
<path d="M8.95211 20.9564L3.79773 15.802" stroke="#363636" stroke-width="2" stroke-linecap="round" stroke-linejoin="round"/>
</svg>
